<?xml version="1.0" encoding="UTF-8"?>
<svg xmlns="http://www.w3.org/2000/svg" viewBox="0 0 1200 700">
  <defs>
    <style>
      .cls-1 {
        letter-spacing: -.06em;
      }

      .cls-2 {
        letter-spacing: -.06em;
      }

      .cls-3 {
        letter-spacing: -.04em;
      }

      .cls-4 {
        fill: #004370;
      }

      .cls-5 {
        letter-spacing: -.09em;
      }

      .cls-6 {
        letter-spacing: -.06em;
      }

      .cls-7 {
        letter-spacing: -.04em;
      }

      .cls-8 {
        letter-spacing: -.04em;
      }

      .cls-9 {
        font-family: Inter-Light, Inter;
        font-size: 29.35px;
        font-weight: 300;
      }

      .cls-10 {
        fill: #009b5b;
      }

      .cls-11 {
        letter-spacing: -.06em;
      }
    </style>
  </defs>
  <g id="studios">
    <g>
      <path class="cls-4" d="M483.25,370.78c-13.57-2.75-26.97-9.54-38.89-19.81l10.82-12.29c9.72,8.44,20.55,14.12,31.37,16.33,9.17,2.02,18.16,1.28,25.32-2.02,4.77-2.2,13.03-7.7,13.03-18.89,0-13.76-14.68-18.71-28.98-21.46-1.28-.18-21.83-4.4-30.08-9.17-11.01-6.6-16.88-16.51-16.88-28.62,0-6.79,2.2-13.21,6.05-18.89,3.85-5.14,9.17-9.36,15.41-12.29,9.17-4.4,20-5.69,31-3.85,11.92,2.02,24.03,7.7,34.67,16.51l-10.46,12.66c-18.89-15.59-37.24-15.96-48.24-10.82-7.52,3.49-11.92,9.91-11.92,16.51,0,12.47,10.64,17.24,27.52,20.91,6.97,1.65,21.46,4.04,30.09,8.99,11.92,6.6,18.16,16.88,18.16,29.53,0,7.52-2.02,14.49-6.24,20.54-3.85,5.5-9.72,9.72-16.33,13.03-6.97,3.49-14.12,4.59-22.2,4.59-4.4,0-8.81-.55-13.21-1.47Z"/>
      <path class="cls-4" d="M564.52,343.08v-41.09h-12.47v-15.04h12.47v-32.47h15.78v32.47h25.86v15.04h-25.86v40.72c0,6.79,5.87,13.21,12.47,13.21h14.13l4.04,15.04h-18.53c-15.41,0-27.88-12.29-27.88-27.88Z"/>
      <path class="cls-4" d="M625.06,335.01v-48.06h15.78v48.06c0,12.29,10.27,22.38,23.11,22.38s23.11-10.09,23.11-22.38v-48.06h15.78v48.06c0,10.27-4.22,19.81-11.56,26.97-7.34,7.15-17.06,10.82-27.33,10.82s-20.18-3.67-27.52-10.82c-7.34-7.15-11.37-16.69-11.37-26.97Z"/>
      <path class="cls-4" d="M791.99,236.32h15.78v134.65h-15.78v-9.72c-7.89,6.6-17.79,11.56-28.25,11.56-11.74,0-22.75-4.4-31.19-12.66-8.26-8.44-12.84-19.44-12.84-31.19s4.59-22.75,12.84-31.19c8.44-8.25,19.44-12.66,31.19-12.66,10.46,0,20.36,4.95,28.25,11.56v-60.35ZM791.99,328.96c0-15.59-12.66-28.43-28.25-28.43s-28.25,12.84-28.25,28.43,12.66,28.43,28.25,28.43,28.25-12.84,28.25-28.43Z"/>
      <path class="cls-4" d="M834.74,262.92c0-5.69,4.59-10.27,10.46-10.27s10.27,4.59,10.27,10.27-4.59,10.46-10.27,10.46-10.46-4.77-10.46-10.46ZM837.31,286.95h15.78v84.02h-15.78v-84.02Z"/>
      <path class="cls-4" d="M961.5,328.96c0,11.74-4.59,22.75-13.03,31.19-8.25,8.26-19.26,12.84-31,12.84s-22.75-4.59-31.19-12.84c-8.26-8.44-12.84-19.44-12.84-31.19s4.59-22.75,12.84-31.19c8.44-8.25,19.44-12.66,31.19-12.66s22.75,4.4,31,12.66c8.44,8.44,13.03,19.44,13.03,31.19ZM945.72,328.96c0-15.59-12.66-28.07-28.25-28.07s-28.25,12.47-28.25,28.07,12.66,28.25,28.25,28.25,28.25-12.66,28.25-28.25Z"/>
      <path class="cls-4" d="M1036.71,346.2c0,4.77-1.28,9.36-4.04,13.21-2.57,3.85-6.24,6.79-11.19,9.17-4.4,2.02-9.72,3.12-15.04,3.12-2.93,0-5.69-.37-8.62-.92-9.17-1.83-17.79-5.87-25.13-12.11l9.91-10.82c9.72,8.26,17.98,9.91,23.11,9.91,3.49,0,6.79-.73,9.72-2.02,2.39-1.1,6.6-3.85,6.6-9.54s-4.95-9.17-16.33-11.19c-.55-.18-14.49-2.75-19.63-5.69-7.7-4.4-11.74-11.19-11.74-19.63,0-4.59,1.47-8.99,4.04-12.84,2.39-3.3,5.69-5.87,10.46-8.07,4.4-2.02,9.17-3.12,14.49-3.12,2.02,0,4.22.18,6.24.37,8.07,1.29,15.96,4.77,22.56,10.09l-9.17,10.64c-8.26-6.42-15.41-7.34-18.9-7.34-3.3,0-6.42.55-8.99,1.83-3.67,1.83-6.05,5.14-6.05,8.44,0,5.5,4.4,8.44,15.59,10.82.18,0,15.23,3.3,19.44,5.69,4.95,2.57,6.79,4.59,8.81,7.16,2.57,3.67,3.85,8.07,3.85,12.84Z"/>
    </g>
    <text class="cls-9" transform="translate(452.72 438.22)"><tspan class="cls-5" x="0" y="0">W</tspan><tspan class="cls-7" x="24.62" y="0">e a</tspan><tspan class="cls-1" x="62.73" y="0">r</tspan><tspan class="cls-7" x="71.52" y="0">e Graphic Design based studio, of</tspan><tspan class="cls-6" x="496.82" y="0">f</tspan><tspan class="cls-7" x="505.28" y="0">ering </tspan><tspan class="cls-3" x="0" y="35.22">C</tspan><tspan class="cls-1" x="20.13" y="35.22">r</tspan><tspan class="cls-3" x="28.92" y="35.22">eati</tspan><tspan class="cls-11" x="74.92" y="35.22">v</tspan><tspan class="cls-7" x="89.17" y="35.22">e &amp; P</tspan><tspan class="cls-2" x="153.43" y="35.22">r</tspan><tspan class="cls-8" x="162.22" y="35.22">o</tspan><tspan class="cls-6" x="178.39" y="35.22">f</tspan><tspan class="cls-7" x="186.85" y="35.22">essional designs.</tspan></text>
  </g>
  <g id="logo-icon">
    <path class="cls-4" d="M191.86,378.07l-30.56,50.33c-18.91-23.66-30.27-53.59-30.44-86.16,13.36,20.04,35.6,33.79,61,35.84Z"/>
    <path class="cls-10" d="M162.53,298.46c0-19.99,16-36.63,35.97-36.63s35.99,16.64,35.99,36.63-16.66,36.63-35.99,36.63-35.97-16.98-35.97-36.63Z"/>
    <path class="cls-4" d="M272.09,346.09c-6.32,12.33-9.98,25.99-9.98,38.98,0,21.65,8.32,41.64,23.64,56.62,13.73,13.43,31.22,21.24,50.28,22.73-19.58,10.5-41.97,16.45-65.75,16.45-27.58,0-53.32-8.02-74.97-21.85l73.48-121.59.34-1c6.32-12.31,9.66-25.64,9.66-37.97,0-42.24-32.72-76.93-74.21-80.02,19.58-10.5,41.96-16.44,65.7-16.44,28.02,0,54.13,8.27,76,22.53h-.57l-73.28,121.56h-.34Z"/>
    <path class="cls-10" d="M378.34,385.07c0,19.65-16.32,36.63-35.63,36.63s-35.97-16.98-35.97-36.63,16.32-36.31,35.97-36.31,35.63,16.32,35.63,36.31Z"/>
  </g>
</svg>