<?xml version="1.0" encoding="UTF-8"?>
<svg id="Layer_1" data-name="Layer 1" xmlns="http://www.w3.org/2000/svg" viewBox="0 0 43.2 43.2">
  <defs>
    <style>
      .cls-1 {
        fill: #004370;
      }

      .cls-2 {
        fill: #009b5b;
      }
    </style>
  </defs>
  <path class="cls-1" d="M11.93,27.28l-4.73,7.78c-2.92-3.66-4.68-8.29-4.71-13.32,2.07,3.1,5.5,5.22,9.43,5.54Z"/>
  <path class="cls-2" d="M7.39,14.97c0-3.09,2.47-5.66,5.56-5.66s5.56,2.57,5.56,5.66-2.58,5.66-5.56,5.66-5.56-2.63-5.56-5.66Z"/>
  <path class="cls-1" d="M24.33,22.34c-.98,1.91-1.54,4.02-1.54,6.03,0,3.35,1.29,6.44,3.66,8.76,2.12,2.08,4.83,3.28,7.77,3.51-3.03,1.62-6.49,2.54-10.17,2.54-4.27,0-8.25-1.24-11.59-3.38l11.36-18.8.05-.15c.98-1.9,1.49-3.96,1.49-5.87,0-6.53-5.06-11.9-11.47-12.37C16.92.97,20.38.05,24.05.05c4.33,0,8.37,1.28,11.75,3.48h-.09l-11.33,18.8h-.05Z"/>
  <path class="cls-2" d="M40.76,28.36c0,3.04-2.52,5.66-5.51,5.66s-5.56-2.63-5.56-5.66,2.52-5.61,5.56-5.61,5.51,2.52,5.51,5.61Z"/>
</svg>